<svg xmlns="http://www.w3.org/2000/svg" xmlns:xlink="http://www.w3.org/1999/xlink" width="940" zoomAndPan="magnify" viewBox="0 0 705 591.000005" height="788" preserveAspectRatio="xMidYMid meet" version="1.0"><defs><clipPath id="dafbb9d9c5"><path d="M 0.59375 0 L 704.402344 0 L 704.402344 590 L 0.59375 590 Z M 0.59375 0 " clip-rule="nonzero"/></clipPath></defs><g clip-path="url(#dafbb9d9c5)"><path fill="#ffffff" d="M 0.59375 0 L 704.40625 0 L 704.40625 590 L 0.59375 590 Z M 0.59375 0 " fill-opacity="1" fill-rule="nonzero"/><path fill="#ffffff" d="M 0.59375 0 L 704.40625 0 L 704.40625 590 L 0.59375 590 Z M 0.59375 0 " fill-opacity="1" fill-rule="nonzero"/></g><path fill="#32085c" d="M 309.1875 267.597656 C 308.5 262.976562 307.433594 258.445312 305.984375 254.003906 C 304.539062 249.558594 302.730469 245.269531 300.5625 241.128906 C 298.394531 236.988281 295.898438 233.058594 293.070312 229.335938 C 290.246094 225.613281 287.128906 222.152344 283.722656 218.953125 C 277.617188 213.320312 270.917969 208.515625 263.625 204.539062 C 256.328125 200.5625 248.65625 197.539062 240.609375 195.464844 C 237.613281 193.824219 234.496094 192.453125 231.261719 191.351562 C 228.027344 190.25 224.722656 189.4375 221.34375 188.90625 C 217.96875 188.378906 214.570312 188.144531 211.152344 188.203125 C 207.734375 188.261719 204.347656 188.613281 200.992188 189.257812 C 197.308594 189.980469 193.738281 191.074219 190.28125 192.539062 C 189.378906 192.464844 188.484375 192.53125 187.597656 192.738281 C 169.070312 197.128906 156.863281 214.003906 149.484375 230.492188 C 147.367188 235.160156 145.5625 239.949219 144.070312 244.855469 C 142.578125 249.761719 141.410156 254.742188 140.566406 259.800781 C 139.722656 264.855469 139.210938 269.945312 139.03125 275.070312 C 138.847656 280.195312 139 285.308594 139.484375 290.414062 C 143.289062 327.699219 167.386719 364.742188 206.699219 371.125 C 243.472656 377.113281 277.195312 352.882812 295.925781 322.96875 C 306.4375 306.175781 312.039062 287.417969 309.1875 267.597656 Z M 309.1875 267.597656 " fill-opacity="1" fill-rule="nonzero"/><path fill="#32085c" d="M 502.628906 199.285156 L 470.894531 212.09375 C 469.335938 212.722656 470.011719 215.277344 471.589844 214.640625 L 503.378906 201.832031 C 504.882812 201.203125 504.1875 198.648438 502.628906 199.285156 Z M 502.628906 199.285156 " fill-opacity="1" fill-rule="nonzero"/><path fill="#32085c" d="M 511.796875 219.628906 C 500.210938 222.890625 488.40625 224.824219 476.382812 225.425781 C 474.691406 225.511719 474.679688 228.152344 476.382812 228.066406 C 488.652344 227.460938 500.703125 225.496094 512.53125 222.175781 C 512.699219 222.128906 512.851562 222.046875 512.988281 221.9375 C 513.128906 221.828125 513.238281 221.699219 513.324219 221.542969 C 513.410156 221.390625 513.460938 221.226562 513.480469 221.050781 C 513.5 220.878906 513.484375 220.707031 513.4375 220.535156 C 513.386719 220.367188 513.308594 220.214844 513.199219 220.078125 C 513.089844 219.941406 512.960938 219.828125 512.804688 219.746094 C 512.652344 219.660156 512.488281 219.605469 512.3125 219.585938 C 512.140625 219.566406 511.96875 219.582031 511.796875 219.628906 Z M 511.796875 219.628906 " fill-opacity="1" fill-rule="nonzero"/><path fill="#32085c" d="M 513.320312 251.320312 C 501.460938 248.878906 489.472656 247.671875 477.363281 247.699219 C 477.1875 247.699219 477.019531 247.734375 476.859375 247.800781 C 476.695312 247.867188 476.550781 247.960938 476.429688 248.085938 C 476.304688 248.210938 476.210938 248.351562 476.140625 248.515625 C 476.074219 248.675781 476.042969 248.84375 476.042969 249.019531 C 476.042969 249.195312 476.074219 249.363281 476.140625 249.527344 C 476.210938 249.6875 476.304688 249.832031 476.429688 249.953125 C 476.550781 250.078125 476.695312 250.171875 476.859375 250.242188 C 477.019531 250.308594 477.1875 250.339844 477.363281 250.339844 C 489.234375 250.304688 500.988281 251.480469 512.617188 253.867188 C 514.28125 254.246094 514.996094 251.660156 513.320312 251.320312 Z M 513.320312 251.320312 " fill-opacity="1" fill-rule="nonzero"/><path fill="#32085c" d="M 481.121094 103.859375 C 478.132812 96.570312 473.121094 89.605469 465.75 86.234375 C 458.375 82.859375 449.703125 82.574219 442.699219 86.785156 C 435.269531 91.261719 432.238281 99.519531 431.351562 107.746094 C 430.96875 111.675781 431.003906 115.601562 431.457031 119.519531 C 431.40625 120.984375 431.441406 122.445312 431.570312 123.902344 C 431.753906 126.308594 432.25 128.652344 433.058594 130.929688 C 433.863281 133.207031 434.953125 135.339844 436.328125 137.328125 C 439.179688 143.164062 443.433594 148.292969 449.804688 150.460938 C 451.664062 151.078125 453.570312 151.375 455.53125 151.339844 C 457.488281 151.308594 459.386719 150.953125 461.222656 150.269531 C 465.035156 149.699219 468.523438 148.3125 471.683594 146.109375 C 484.765625 136.816406 486.875 117.941406 481.121094 103.859375 Z M 481.121094 103.859375 " fill-opacity="1" fill-rule="nonzero"/><path fill="#000000" d="M 375.828125 253.371094 C 376.203125 254.90625 376.664062 256.414062 377.21875 257.894531 C 377.503906 258.90625 378.113281 259.65625 379.042969 260.148438 C 381.109375 261.003906 382.898438 258.835938 383.800781 257.25 C 384.925781 254.945312 385.445312 252.511719 385.351562 249.953125 C 385.308594 246.96875 385.039062 244.007812 384.542969 241.066406 C 384.113281 238.273438 383.734375 235.136719 382.640625 232.515625 C 381.984375 230.976562 380.148438 229.570312 378.585938 230.15625 C 378.375 230.109375 378.191406 230.167969 378.046875 230.328125 C 374.410156 234.082031 374.171875 239.652344 374.507812 244.582031 C 374.679688 247.550781 375.121094 250.480469 375.828125 253.371094 Z M 375.828125 253.371094 " fill-opacity="1" fill-rule="nonzero"/><path fill="#000000" d="M 352.742188 283.011719 C 356.792969 280.027344 359 275.351562 359.667969 270.4375 C 360.515625 264.121094 358.800781 257.808594 357.148438 251.757812 C 357.082031 251.601562 356.976562 251.484375 356.824219 251.410156 C 356.671875 251.335938 356.515625 251.324219 356.351562 251.367188 C 356.191406 251.414062 356.0625 251.503906 355.972656 251.648438 C 355.878906 251.789062 355.847656 251.941406 355.871094 252.109375 C 358.476562 261.609375 361.53125 274.914062 352.066406 281.871094 C 351.402344 282.375 352.058594 283.523438 352.742188 283.011719 Z M 352.742188 283.011719 " fill-opacity="1" fill-rule="nonzero"/><path fill="#000000" d="M 380.527344 289.738281 C 374.308594 294.546875 366.410156 296.390625 358.734375 297.273438 C 351.316406 298.128906 343.628906 298.28125 336.324219 296.496094 C 332.46875 295.578125 328.875 294.050781 325.539062 291.914062 C 326.089844 291.523438 326.640625 291.125 327.222656 290.765625 C 327.800781 290.402344 327.269531 289.167969 326.546875 289.625 C 324.667969 290.8125 322.894531 292.144531 321.226562 293.613281 C 321.097656 293.746094 321.03125 293.90625 321.03125 294.089844 C 321.03125 294.277344 321.097656 294.433594 321.226562 294.566406 C 321.359375 294.695312 321.519531 294.761719 321.703125 294.761719 C 321.890625 294.761719 322.046875 294.695312 322.179688 294.566406 C 322.902344 293.929688 323.644531 293.339844 324.40625 292.761719 C 330.796875 297.054688 338.4375 298.832031 346.066406 299.15625 C 354.136719 299.566406 362.066406 298.675781 369.847656 296.484375 C 374.089844 295.285156 377.964844 293.351562 381.480469 290.6875 C 382.144531 290.148438 381.203125 289.226562 380.527344 289.738281 Z M 380.527344 289.738281 " fill-opacity="1" fill-rule="nonzero"/><path fill="#000000" d="M 512.617188 393.117188 C 511.230469 388.964844 509.25 385.117188 506.671875 381.578125 C 506.574219 381.4375 506.488281 381.285156 506.386719 381.132812 C 506.089844 380.683594 505.753906 380.265625 505.378906 379.878906 C 502.453125 376.292969 499.152344 373.089844 495.480469 370.269531 C 491.804688 367.453125 487.855469 365.097656 483.632812 363.203125 C 469.15625 356.550781 452.859375 354.242188 437.023438 352.804688 C 434.738281 352.550781 432.445312 352.359375 430.183594 352.253906 C 413.246094 351.03125 396.332031 351.25 379.433594 352.910156 C 377.332031 353.121094 375.230469 353.355469 373.128906 353.605469 C 373.414062 348.871094 373.605469 344.121094 373.707031 339.351562 C 379.691406 340.382812 385.714844 340.742188 391.78125 340.425781 C 395.8125 340.300781 399.941406 340.195312 404.042969 339.835938 C 407.460938 339.621094 410.855469 339.191406 414.222656 338.550781 C 415.296875 338.34375 416.4375 338.105469 417.597656 337.839844 C 419.566406 337.570312 421.46875 337.0625 423.304688 336.308594 C 425.207031 335.519531 427.109375 334.589844 429.011719 333.640625 C 430.617188 332.921875 432.035156 331.933594 433.265625 330.675781 C 434.421875 329.238281 435 327.597656 434.996094 325.753906 C 434.996094 325.019531 435.0625 324.28125 435.070312 323.546875 C 435.496094 319.453125 435.105469 315.441406 433.890625 311.507812 C 433.738281 310.984375 433.558594 310.445312 433.367188 309.902344 C 433.167969 309.152344 432.96875 308.402344 432.742188 307.660156 C 433.570312 308.464844 434.449219 309.207031 435.386719 309.882812 C 437.125 311.117188 439.007812 312.0625 441.039062 312.710938 C 443.070312 313.359375 445.152344 313.683594 447.285156 313.683594 C 450.796875 313.539062 454.160156 312.761719 457.378906 311.347656 C 458.554688 310.96875 459.6875 310.492188 460.785156 309.921875 C 461.5625 309.523438 460.878906 308.457031 460.117188 308.78125 C 459.109375 309.21875 458.082031 309.65625 457.046875 310.074219 C 455.523438 310.625 453.957031 310.910156 452.339844 310.925781 C 450.722656 310.941406 449.148438 310.683594 447.617188 310.160156 C 443.859375 308.734375 441.351562 305.207031 440.238281 301.453125 C 438.933594 297.007812 439.550781 292.257812 440.625 287.835938 C 441.671875 283.535156 443.101562 279.363281 444.917969 275.324219 C 445.964844 273.003906 447.132812 270.746094 448.417969 268.546875 L 448.484375 268.546875 C 448.84375 268.300781 449.035156 267.957031 449.054688 267.519531 C 449.957031 266.03125 450.898438 264.558594 451.910156 263.132812 C 457.96875 257.429688 463.027344 250.855469 465.226562 242.578125 C 466.785156 236.742188 467.03125 229.453125 463.371094 224.304688 C 462.441406 222.953125 461.246094 221.90625 459.785156 221.160156 C 459.921875 220.777344 459.898438 220.40625 459.707031 220.046875 L 459.707031 219.953125 C 457.253906 210.921875 453.882812 202.246094 449.597656 193.925781 C 449.695312 193.871094 449.773438 193.800781 449.835938 193.707031 C 462.066406 174.265625 462.554688 149.730469 455.761719 128.28125 C 452.222656 117.144531 446.820312 105.78125 438.742188 97.199219 C 430.496094 88.429688 419.070312 83.574219 407.582031 80.675781 C 394.265625 77.320312 380.613281 76.40625 367.097656 79.191406 C 360.746094 80.515625 354.523438 82.292969 348.433594 84.53125 C 348.457031 84.335938 348.40625 84.160156 348.289062 84.003906 C 348.167969 83.847656 348.011719 83.753906 347.816406 83.726562 C 331.367188 81.539062 315.035156 86.433594 300.023438 92.769531 C 289.144531 97.324219 278.78125 102.851562 268.9375 109.351562 C 268.867188 109.289062 268.789062 109.238281 268.703125 109.199219 C 265.230469 107.859375 261.613281 109.199219 258.464844 110.789062 C 254.976562 112.515625 251.65625 114.519531 248.496094 116.792969 C 242.855469 120.964844 238.203125 127.3125 239.335938 134.667969 C 239.351562 134.746094 239.375 134.816406 239.414062 134.886719 C 235.953125 138.792969 232.738281 142.890625 229.765625 147.183594 C 225.574219 153.195312 221.980469 159.546875 218.996094 166.242188 C 216.011719 172.9375 213.683594 179.851562 212.015625 186.988281 C 208.746094 201.433594 208.429688 218.394531 219.179688 229.957031 C 220.207031 231.050781 221.3125 232.054688 222.5 232.96875 C 222.308594 233.285156 222.136719 233.597656 221.976562 233.921875 C 219.121094 239.707031 220.84375 246.597656 223.441406 252.128906 C 224.726562 254.820312 226.226562 257.390625 227.9375 259.835938 C 229.652344 262.28125 231.554688 264.566406 233.648438 266.695312 C 235.746094 268.824219 238 270.765625 240.417969 272.515625 C 242.835938 274.269531 245.382812 275.808594 248.058594 277.136719 C 250.039062 278.105469 252.070312 278.957031 254.148438 279.695312 C 254.230469 282.148438 254.148438 284.597656 253.898438 287.039062 C 252.921875 291.761719 251.304688 296.25 249.046875 300.515625 C 248.234375 301.96875 247.28125 303.328125 246.195312 304.589844 C 243.429688 307.136719 240.257812 308.996094 236.683594 310.167969 C 234.65625 310.863281 232.585938 311.390625 230.472656 311.753906 C 228.898438 312.128906 227.316406 312.203125 225.714844 311.984375 L 224.640625 311.621094 C 224.289062 311.449219 223.972656 311.230469 223.6875 310.964844 C 223.605469 310.898438 223.507812 310.851562 223.398438 310.828125 C 223.292969 310.804688 223.1875 310.808594 223.078125 310.835938 C 222.972656 310.867188 222.878906 310.917969 222.800781 310.992188 C 222.71875 311.070312 222.660156 311.15625 222.625 311.261719 C 222.550781 311.347656 222.5 311.445312 222.472656 311.558594 C 222.449219 311.667969 222.449219 311.78125 222.476562 311.890625 C 222.507812 312 222.558594 312.097656 222.636719 312.183594 C 222.710938 312.269531 222.800781 312.332031 222.910156 312.371094 L 224.191406 312.820312 C 224.59375 313 225.007812 313.140625 225.4375 313.238281 C 232.441406 315.605469 239.707031 317.648438 247.164062 316.429688 C 248.519531 316.210938 249.84375 315.863281 251.132812 315.386719 C 248.992188 318.046875 247.726562 321.070312 247.328125 324.460938 C 246.804688 328.925781 248.03125 334.742188 252.148438 337.242188 C 251.664062 337.847656 251.199219 338.457031 250.703125 339.054688 C 250.582031 339.207031 250.445312 339.359375 250.332031 339.511719 C 249.382812 339.75 248.574219 340.757812 247.898438 341.347656 L 244.617188 344.195312 C 240.90625 340.878906 235.199219 338.667969 230.910156 342.296875 C 229.46875 343.636719 228.609375 345.28125 228.332031 347.226562 C 228.265625 347.195312 228.199219 347.167969 228.132812 347.152344 C 223.519531 346.34375 219.191406 349.050781 216.714844 352.851562 C 213.757812 357.433594 213.632812 363.25 213.605469 368.53125 C 213.484375 368.46875 213.359375 368.453125 213.226562 368.480469 C 213.09375 368.507812 212.984375 368.578125 212.902344 368.683594 C 205.464844 377.035156 198.804688 385.964844 192.925781 395.472656 C 190.019531 399.953125 187.839844 404.757812 186.390625 409.898438 C 185.011719 415.332031 185.554688 420.902344 184.925781 426.421875 C 184.269531 432.199219 181.75 437.445312 178.925781 442.453125 C 176.203125 447.296875 173.378906 452.097656 170.667969 456.945312 C 165.101562 466.902344 159.746094 476.972656 154.773438 487.238281 C 149.242188 498.585938 144.292969 510.179688 139.933594 522.027344 C 139.105469 521.949219 139.113281 523.242188 139.933594 523.347656 C 163.410156 526.246094 187.007812 523.5 210.324219 520.734375 C 225.460938 518.941406 240.597656 517.1875 255.734375 515.476562 C 256.398438 515.480469 257.050781 515.410156 257.695312 515.261719 C 265.527344 514.386719 273.359375 513.53125 281.191406 512.695312 C 289.214844 511.839844 297.238281 511.023438 305.265625 510.242188 C 315.191406 509.464844 325.117188 508.757812 335.039062 508.125 C 336.246094 508.054688 337.386719 507.738281 338.453125 507.171875 C 366.46875 504.777344 394.519531 502.867188 422.621094 501.765625 C 449.253906 500.722656 475.890625 500.386719 502.523438 500.976562 C 502.828125 500.960938 503.027344 500.8125 503.125 500.523438 C 503.21875 500.234375 503.148438 499.992188 502.914062 499.800781 C 503.007812 498.847656 503.09375 497.898438 503.191406 496.902344 C 507.097656 479.949219 510.953125 462.957031 513.253906 445.691406 C 514.46875 436.800781 515.167969 427.867188 515.347656 418.894531 C 515.460938 410.277344 515.328125 401.363281 512.617188 393.117188 Z M 463.53125 227.175781 C 464.789062 230.273438 465.25 233.484375 464.910156 236.808594 C 464.207031 246.902344 458.59375 254.863281 451.59375 261.648438 C 451.421875 261.679688 451.285156 261.769531 451.1875 261.914062 L 450.964844 262.238281 C 447.128906 265.734375 443.105469 269.003906 438.894531 272.042969 C 442.472656 265.113281 445.175781 257.855469 447.011719 250.277344 C 448.847656 242.699219 449.757812 235.011719 449.75 227.210938 C 449.75 226.261719 449.75 225.386719 449.691406 224.476562 C 450.292969 224.152344 450.890625 223.808594 451.5 223.523438 C 453.238281 222.574219 455.152344 221.625 457.207031 221.777344 C 457.527344 221.804688 457.84375 221.859375 458.15625 221.9375 C 458.269531 221.984375 458.386719 222.015625 458.511719 222.03125 C 460.820312 222.726562 462.535156 224.949219 463.53125 227.175781 Z M 456.929688 215.117188 L 456.929688 215.164062 C 456.925781 215.148438 456.925781 215.132812 456.929688 215.117188 Z M 399.960938 133.945312 L 399.132812 133.667969 L 400.171875 133.964844 Z M 255.613281 182.246094 L 256.003906 181.753906 L 256.003906 181.835938 C 255.839844 181.972656 255.726562 182.113281 255.613281 182.246094 Z M 279.34375 267.320312 Z M 288.800781 245.597656 L 288.742188 245.179688 C 288.847656 245.570312 288.972656 245.941406 289.085938 246.320312 C 289 246.074219 288.894531 245.835938 288.800781 245.597656 Z M 383.039062 164.722656 L 382.980469 164.722656 Z M 416.238281 144.691406 C 417.597656 146.175781 418.890625 147.734375 420.117188 149.328125 C 419.425781 148.484375 418.75 147.628906 418.035156 146.792969 Z M 355.671875 83.496094 C 362.054688 81.433594 368.574219 79.988281 375.230469 79.164062 C 382.167969 78.441406 389.089844 78.605469 395.984375 79.65625 C 407.867188 81.398438 420.136719 84.769531 430.164062 91.59375 C 440.351562 98.519531 446.925781 109.449219 451.566406 120.632812 C 460.050781 141.0625 462.03125 165.40625 452.566406 185.867188 C 451.488281 188.179688 450.277344 190.417969 448.929688 192.585938 C 445.601562 186.125 441.890625 179.84375 438.03125 173.703125 C 433.503906 166.5 428.878906 159.308594 423.980469 152.34375 C 419.527344 145.984375 414.355469 139.742188 407.542969 135.761719 C 400.730469 131.777344 391.992188 130.058594 384.390625 133.109375 C 384.238281 132.824219 384.074219 132.546875 383.90625 132.261719 C 382.839844 129.800781 379.519531 128.035156 377.4375 126.886719 C 373.558594 124.753906 369.464844 123.179688 365.15625 122.164062 C 360.796875 121.1875 356.386719 120.695312 351.921875 120.675781 C 347.453125 120.65625 343.039062 121.117188 338.675781 122.058594 C 320.066406 125.859375 303.210938 136.511719 288.402344 148 C 274.546875 158.667969 262.375 170.992188 251.894531 184.984375 C 254.976562 175.890625 258.851562 167.152344 263.523438 158.761719 C 268.195312 150.375 273.585938 142.476562 279.699219 135.066406 C 286.300781 127.046875 293.605469 119.71875 301.601562 113.082031 C 309.601562 106.449219 318.152344 100.625 327.257812 95.613281 C 336.320312 90.617188 345.792969 86.578125 355.671875 83.496094 Z M 296.058594 95.9375 C 311.972656 88.761719 329.496094 82.820312 347.234375 84.988281 C 343.050781 86.558594 338.941406 88.316406 334.925781 90.214844 C 321.761719 96.492188 309.660156 104.394531 298.625 113.921875 C 298.582031 113.863281 298.527344 113.808594 298.464844 113.761719 C 296.472656 112.453125 294.363281 111.371094 292.136719 110.515625 C 289.910156 109.660156 287.617188 109.050781 285.261719 108.683594 C 282.902344 108.320312 280.535156 108.210938 278.152344 108.351562 C 275.773438 108.496094 273.433594 108.890625 271.136719 109.535156 C 279.09375 104.359375 287.402344 99.828125 296.058594 95.9375 Z M 249.953125 121.363281 C 251.46875 120.535156 252.921875 119.613281 254.320312 118.597656 C 254.496094 118.480469 254.640625 118.328125 254.746094 118.144531 C 254.851562 117.957031 254.910156 117.757812 254.921875 117.542969 C 254.933594 117.332031 254.894531 117.125 254.808594 116.929688 C 254.722656 116.734375 254.597656 116.570312 254.433594 116.433594 C 255.40625 115.832031 256.40625 115.28125 257.4375 114.789062 C 257.53125 114.742188 257.621094 114.6875 257.699219 114.621094 C 257.777344 114.554688 257.847656 114.476562 257.910156 114.394531 C 257.96875 114.308594 258.015625 114.214844 258.050781 114.117188 C 258.085938 114.019531 258.109375 113.921875 258.121094 113.816406 C 258.128906 113.710938 258.125 113.609375 258.109375 113.507812 C 258.089844 113.40625 258.0625 113.304688 258.019531 113.210938 C 257.976562 113.117188 257.921875 113.027344 257.855469 112.949219 C 257.789062 112.867188 257.714844 112.796875 257.628906 112.734375 L 258.332031 112.355469 C 261.1875 110.824219 264.410156 109.371094 267.625 110.246094 C 265.238281 111.863281 262.871094 113.523438 260.585938 115.273438 C 254.429688 119.96875 248.679688 125.113281 243.332031 130.714844 C 243.84375 129.5 244.378906 128.292969 244.949219 127.09375 C 245.035156 126.921875 245.082031 126.738281 245.089844 126.542969 C 246.457031 124.578125 248.078125 122.851562 249.953125 121.363281 Z M 245.023438 121.734375 L 245.023438 121.800781 C 244.042969 123.078125 243.152344 124.417969 242.351562 125.820312 L 242.144531 126.132812 C 242.097656 126.199219 242.0625 126.269531 242.039062 126.34375 C 241.953125 126.4375 241.867188 126.550781 241.78125 126.65625 C 242.613281 124.851562 243.695312 123.210938 245.023438 121.734375 Z M 241.285156 134.78125 C 249.289062 125.984375 258.210938 118.25 268.054688 111.578125 C 268.226562 111.78125 268.4375 111.832031 268.683594 111.71875 C 271.042969 110.820312 273.472656 110.207031 275.976562 109.882812 C 278.480469 109.554688 280.988281 109.527344 283.5 109.792969 C 286.011719 110.0625 288.457031 110.617188 290.835938 111.464844 C 293.214844 112.308594 295.464844 113.421875 297.582031 114.796875 C 292.855469 118.933594 288.378906 123.320312 284.148438 127.957031 C 276.996094 135.773438 270.675781 144.214844 265.1875 153.273438 C 259.695312 162.335938 255.144531 171.84375 251.53125 181.800781 C 250.75 183.992188 250.019531 186.207031 249.335938 188.453125 C 248.878906 189.097656 248.441406 189.761719 247.992188 190.417969 C 240.164062 173.027344 239.972656 153.519531 241.285156 134.78125 Z M 212.75 189.972656 C 214.1875 182.984375 216.269531 176.191406 218.996094 169.597656 C 221.722656 163.003906 225.046875 156.726562 228.96875 150.765625 C 232.257812 145.722656 235.886719 140.941406 239.859375 136.417969 C 238.640625 155.105469 239.136719 174.425781 247.117188 191.710938 C 242.523438 198.5 239.160156 205.851562 237.035156 213.765625 C 235.945312 218.332031 235.265625 222.957031 234.988281 227.640625 C 234.9375 227.394531 234.789062 227.253906 234.542969 227.210938 C 230.15625 226.1875 225.859375 228.4375 223.261719 231.914062 C 210.648438 222.015625 209.859375 204.453125 212.730469 189.972656 Z M 252.644531 277.726562 C 247.230469 275.582031 242.316406 272.613281 237.898438 268.824219 C 233.726562 265.257812 230.199219 261.136719 227.3125 256.46875 C 224.15625 251.347656 221.339844 245.277344 221.910156 239.117188 C 222.460938 233.207031 227.742188 226.964844 234.191406 228.476562 C 234.351562 228.515625 234.503906 228.5 234.652344 228.421875 C 234.796875 228.339844 234.898438 228.222656 234.953125 228.066406 C 234.953125 228.265625 234.953125 228.464844 234.953125 228.664062 C 234.582031 233.433594 234.738281 238.1875 235.425781 242.917969 C 235.75 245.007812 236.277344 247.039062 237.007812 249.019531 C 237.738281 251.003906 238.660156 252.890625 239.773438 254.6875 C 240.886719 256.480469 242.164062 258.148438 243.613281 259.6875 C 245.0625 261.226562 246.648438 262.605469 248.375 263.824219 C 252.730469 266.859375 257.535156 268.78125 262.785156 269.582031 C 264.917969 274.019531 267.375 278.273438 270.148438 282.34375 C 264.148438 281.398438 258.308594 279.859375 252.625 277.726562 Z M 288.695312 288.597656 C 290.113281 286.382812 291.910156 283.648438 294.773438 283.316406 C 295.933594 283.144531 296.988281 283.410156 297.933594 284.101562 C 299.140625 285.101562 299.066406 286.699219 298.722656 288.085938 C 297.9375 290.933594 296.984375 293.726562 295.867188 296.464844 C 294.835938 299.277344 293.726562 302.066406 292.546875 304.828125 C 287.960938 315.53125 282.410156 325.707031 275.890625 335.359375 C 273.628906 338.703125 271.203125 341.933594 268.816406 345.183594 C 268.703125 345.179688 268.597656 345.203125 268.496094 345.25 C 268.398438 345.296875 268.3125 345.367188 268.246094 345.457031 C 268.179688 345.546875 268.140625 345.644531 268.125 345.757812 C 268.109375 345.867188 268.121094 345.972656 268.160156 346.078125 C 267.207031 347.34375 266.257812 348.652344 265.304688 350.003906 C 265.132812 350.25 264.933594 350.535156 264.707031 350.839844 C 262.332031 347.59375 259.503906 344.808594 256.222656 342.484375 C 255.269531 341.832031 254.320312 341.222656 253.367188 340.660156 C 252.902344 340.394531 252.332031 340.007812 251.75 339.710938 C 264.980469 323.335938 277.289062 306.296875 288.675781 288.597656 Z M 265.753906 352.199219 C 265.71875 352.136719 265.679688 352.082031 265.636719 352.027344 C 266.867188 350.222656 268.148438 348.445312 269.441406 346.675781 C 274.316406 347.988281 279.277344 348.726562 284.324219 348.898438 C 289.371094 349.070312 294.367188 348.667969 299.320312 347.695312 C 290.578125 350.960938 281.921875 354.46875 273.449219 358.375 C 272.003906 359.039062 270.59375 359.722656 269.128906 360.40625 C 267.664062 361.09375 266.105469 361.863281 264.476562 361.605469 C 264.160156 361.578125 263.855469 361.496094 263.566406 361.363281 C 263.277344 361.226562 263.019531 361.046875 262.796875 360.816406 C 262.570312 360.589844 262.394531 360.332031 262.261719 360.039062 C 262.132812 359.75 262.054688 359.445312 262.03125 359.125 C 262.183594 358.859375 262.328125 358.582031 262.480469 358.335938 C 262.824219 357.765625 263.164062 357.195312 263.496094 356.625 L 265.753906 352.824219 C 265.867188 352.613281 265.859375 352.402344 265.734375 352.199219 Z M 284.179688 324.566406 C 284.925781 323.253906 285.664062 321.925781 286.394531 320.582031 C 286.414062 320.636719 286.433594 320.6875 286.460938 320.734375 C 285.878906 321.683594 285.308594 322.703125 284.757812 323.699219 L 284.652344 323.878906 Z M 228.550781 355.277344 C 228.703125 352.335938 229.117188 349.4375 229.796875 346.574219 C 229.976562 345.871094 230.265625 345.21875 230.667969 344.617188 C 231.070312 344.015625 231.558594 343.496094 232.132812 343.054688 C 232.710938 342.617188 233.34375 342.289062 234.03125 342.0625 C 234.71875 341.835938 235.425781 341.730469 236.148438 341.746094 C 239.175781 341.746094 241.859375 343.40625 243.96875 345.421875 C 243.75 358.605469 242.703125 371.722656 240.832031 384.773438 C 240.8125 384.902344 240.832031 385.023438 240.886719 385.144531 C 238.917969 387.175781 237.472656 389.570312 238.421875 392.375 C 238.683594 393.132812 239.074219 393.816406 239.585938 394.429688 C 240.101562 395.046875 240.710938 395.546875 241.410156 395.9375 C 241.410156 395.9375 241.410156 395.996094 241.410156 396.03125 C 240.640625 398.609375 239.59375 401.621094 236.796875 402.578125 C 234 403.539062 232.242188 401.210938 231.5 398.777344 C 230.773438 396.15625 230.226562 393.5 229.851562 390.804688 C 229.339844 387.773438 228.902344 384.714844 228.636719 381.65625 C 228.054688 375.738281 227.855469 369.808594 228.046875 363.867188 C 228.109375 361.015625 228.277344 358.152344 228.550781 355.277344 Z M 216.460938 356.226562 C 218.164062 351.714844 222.566406 347.503906 227.742188 348.40625 C 227.851562 348.4375 227.964844 348.4375 228.074219 348.40625 C 227.988281 348.957031 227.914062 349.519531 227.835938 350.058594 C 227.359375 353.554688 227.023438 357.074219 226.828125 360.617188 C 226.417969 367.828125 226.578125 375.023438 227.3125 382.207031 C 227.464844 383.699219 227.65625 385.191406 227.855469 386.683594 C 227.796875 386.773438 227.765625 386.871094 227.75 386.976562 C 227.492188 389.554688 226.800781 392.015625 225.675781 394.351562 C 224.726562 396.25 223.242188 398.761719 220.722656 397.855469 C 218.503906 397.070312 217.6875 394.664062 217.171875 392.59375 C 216.546875 390.058594 216.070312 387.496094 215.746094 384.90625 C 215.152344 380.039062 214.867188 375.15625 214.890625 370.253906 C 214.878906 365.585938 214.792969 360.675781 216.460938 356.246094 Z M 198.710938 508.847656 C 198.246094 509.65625 197.929688 510.523438 197.757812 511.441406 L 195.445312 517.710938 C 194.992188 518.234375 194.765625 518.84375 194.769531 519.535156 L 194.210938 521.074219 C 194.207031 521.125 194.207031 521.175781 194.210938 521.226562 C 176.613281 523.070312 158.929688 524.144531 141.3125 522.179688 C 149.027344 501.109375 158.949219 480.9375 169.78125 461.304688 C 172.542969 456.320312 175.351562 451.359375 178.210938 446.425781 C 180.722656 442.082031 183.269531 437.691406 184.867188 432.910156 C 186.121094 441.285156 187.988281 449.523438 190.472656 457.617188 C 192.613281 464.5625 195.429688 471.710938 200.6875 476.917969 C 202.714844 478.914062 205.9375 481.667969 209.011719 481.15625 Z M 278.433594 403.367188 C 277.917969 405.058594 276.53125 406.378906 275.332031 407.664062 C 274.132812 408.945312 272.847656 410.398438 271.574219 411.738281 C 269.039062 414.417969 266.429688 417.035156 263.746094 419.589844 C 253.167969 429.746094 241.867188 439.097656 231.15625 449.121094 C 225.160156 454.664062 219.496094 460.519531 214.15625 466.691406 C 213.972656 466.90625 213.941406 467.140625 214.0625 467.394531 C 214 467.453125 213.957031 467.523438 213.929688 467.605469 C 212.660156 470.949219 211.425781 474.292969 210.230469 477.640625 C 208.535156 476.640625 206.949219 475.496094 205.472656 474.199219 C 201.132812 468.773438 197.6875 462.832031 195.132812 456.375 C 194.953125 455.632812 194.761719 454.890625 194.609375 454.140625 C 194.59375 454.003906 194.53125 453.890625 194.429688 453.800781 C 194.324219 453.707031 194.207031 453.664062 194.066406 453.664062 C 190.882812 445.167969 188.730469 436.179688 186.695312 427.457031 C 186.664062 427.316406 186.59375 427.199219 186.476562 427.113281 C 186.363281 427.023438 186.230469 426.984375 186.085938 426.992188 C 186.535156 423.265625 186.46875 419.503906 186.761719 415.722656 C 187.316406 410.171875 188.976562 404.976562 191.738281 400.128906 C 194.691406 394.804688 197.988281 389.699219 201.621094 384.808594 C 205.355469 379.632812 209.339844 374.648438 213.578125 369.851562 C 213.519531 375.539062 213.890625 381.195312 214.691406 386.824219 C 215.007812 389.726562 215.660156 392.554688 216.648438 395.300781 C 216.992188 396.292969 217.550781 397.144531 218.324219 397.855469 C 219.101562 398.5625 219.996094 399.046875 221.015625 399.300781 C 223.527344 399.777344 225.296875 397.855469 226.390625 395.851562 C 227.308594 394.167969 227.992188 392.394531 228.445312 390.53125 C 228.570312 391.253906 228.664062 391.976562 228.796875 392.699219 C 229.300781 395.546875 229.632812 398.742188 231.050781 401.296875 C 231.195312 401.589844 231.363281 401.871094 231.5625 402.128906 C 231.757812 402.390625 231.976562 402.632812 232.222656 402.847656 C 232.464844 403.066406 232.730469 403.257812 233.011719 403.425781 C 233.292969 403.59375 233.589844 403.730469 233.898438 403.839844 C 234.207031 403.945312 234.523438 404.023438 234.847656 404.070312 C 235.171875 404.117188 235.496094 404.132812 235.824219 404.113281 C 236.152344 404.097656 236.472656 404.046875 236.789062 403.964844 C 237.109375 403.886719 237.414062 403.773438 237.710938 403.632812 C 240.5625 402.371094 241.789062 399.328125 242.648438 396.507812 C 244.484375 397.203125 246.367188 397.359375 248.296875 396.984375 C 249.195312 396.792969 250.070312 396.527344 250.921875 396.183594 C 247.628906 398.609375 244.632812 401.355469 241.933594 404.425781 C 239.234375 407.496094 236.894531 410.816406 234.914062 414.390625 C 233.929688 416.101562 233.03125 417.855469 232.222656 419.65625 C 231.839844 420.484375 231.480469 421.320312 231.136719 422.164062 C 230.871094 422.800781 230.242188 423.730469 230.441406 424.433594 C 230.496094 424.609375 230.601562 424.738281 230.757812 424.828125 C 230.917969 424.917969 231.085938 424.9375 231.261719 424.890625 C 231.472656 424.851562 231.652344 424.757812 231.804688 424.605469 C 231.90625 424.5 231.96875 424.371094 231.988281 424.222656 C 232.003906 424.074219 231.976562 423.9375 231.898438 423.808594 L 231.839844 423.722656 L 232.257812 422.878906 C 232.488281 422.316406 232.714844 421.773438 232.953125 421.222656 C 233.386719 420.261719 233.832031 419.308594 234.296875 418.371094 C 235.226562 416.472656 236.25 414.628906 237.367188 412.84375 C 239.558594 409.308594 242.097656 406.039062 244.976562 403.035156 C 247.816406 400.003906 251.023438 397.429688 254.601562 395.320312 C 258.179688 393.207031 261.980469 391.636719 266.007812 390.617188 C 266.78125 390.4375 266.542969 389.390625 265.839844 389.324219 C 261.28125 388.914062 257.382812 391.441406 253.539062 393.496094 C 249.695312 395.546875 244.539062 397.429688 240.953125 393.835938 C 237.035156 389.921875 242.132812 385.78125 245.023438 383.289062 L 250.882812 378.261719 C 253.089844 376.363281 254.964844 374.539062 258.105469 374.996094 C 263.464844 375.925781 268.535156 377.679688 273.324219 380.257812 C 274.636719 383.886719 275.773438 387.574219 276.738281 391.320312 C 277.195312 393.117188 277.613281 394.929688 277.996094 396.746094 C 278.367188 398.828125 279.078125 401.222656 278.433594 403.332031 Z M 329.457031 353.28125 C 314.09375 362.785156 295.792969 366.328125 280.152344 375.363281 C 278.132812 376.53125 276.164062 377.796875 274.257812 379.164062 C 274.078125 378.976562 273.863281 378.90625 273.609375 378.957031 C 268.808594 376.429688 263.734375 374.691406 258.390625 373.738281 C 257.269531 373.53125 256.15625 373.578125 255.054688 373.878906 C 253.953125 374.179688 252.972656 374.703125 252.113281 375.449219 C 249.742188 377.351562 247.5 379.394531 245.195312 381.371094 C 244.339844 382.113281 243.292969 382.929688 242.285156 383.832031 C 243.972656 371.773438 244.957031 359.65625 245.234375 347.484375 C 245.390625 347.46875 245.519531 347.398438 245.613281 347.277344 L 246.101562 346.695312 C 249.898438 349.855469 253.523438 353.203125 256.972656 356.738281 C 257.839844 357.632812 258.65625 358.640625 259.550781 359.457031 C 259.875 359.824219 260.28125 360.03125 260.769531 360.085938 C 260.902344 360.613281 261.144531 361.082031 261.496094 361.496094 C 261.851562 361.910156 262.277344 362.226562 262.773438 362.441406 C 264.867188 363.515625 267.160156 362.773438 269.15625 361.863281 C 272.011719 360.578125 274.730469 359.230469 277.546875 357.976562 C 283.332031 355.390625 289.191406 352.988281 295.097656 350.707031 C 306.722656 346.230469 318.527344 342.230469 330.351562 338.351562 C 333.203125 337.402344 336.105469 336.28125 339.042969 335.503906 C 340.539062 335.113281 342.308594 335.015625 343.289062 336.453125 C 343.644531 337.03125 343.851562 337.660156 343.910156 338.335938 C 343.96875 339.015625 343.871094 339.667969 343.621094 340.300781 C 342.734375 342.789062 340.414062 344.785156 338.511719 346.535156 C 336.667969 348.21875 334.714844 349.773438 332.660156 351.199219 C 332.320312 351.4375 331.96875 351.65625 331.617188 351.882812 C 331.617188 351.882812 331.617188 351.933594 331.558594 351.949219 C 330.953125 352.542969 330.257812 352.984375 329.464844 353.28125 Z M 332.519531 325.972656 C 332.621094 328.148438 332.660156 330.328125 332.632812 332.5 C 332.632812 331.816406 332.632812 331.121094 332.632812 330.4375 C 332.566406 328.90625 332.546875 327.414062 332.519531 325.933594 Z M 333.871094 326.589844 C 335.554688 329.5 337.753906 331.949219 340.472656 333.933594 C 339.101562 334.082031 337.769531 334.402344 336.476562 334.882812 L 333.8125 335.769531 C 333.855469 335.679688 333.878906 335.589844 333.878906 335.492188 C 334.011719 332.507812 334.003906 329.523438 333.917969 326.550781 Z M 372.109375 356.511719 C 371.003906 359.828125 369.71875 363.070312 368.246094 366.242188 C 365.003906 370.992188 361.140625 375.421875 355.882812 377.875 C 351.839844 379.773438 348.40625 379.878906 345.246094 378.824219 C 344.78125 378.558594 344.296875 378.292969 343.886719 377.996094 C 340.019531 375.558594 336.792969 372.457031 334.210938 368.683594 C 332.980469 366.882812 332.042969 364.9375 331.394531 362.855469 C 330.746094 360.769531 330.417969 358.636719 330.40625 356.453125 C 330.476562 356.238281 330.476562 356.023438 330.40625 355.808594 C 330.40625 355.238281 330.484375 354.660156 330.570312 354.078125 C 334.261719 351.8125 337.65625 349.167969 340.757812 346.144531 C 342.480469 344.433594 344.429688 342.496094 345 340.042969 C 345.25 338.9375 345.1875 337.851562 344.808594 336.785156 C 346.828125 337.871094 348.921875 338.777344 351.097656 339.503906 C 354.914062 340.78125 358.835938 341.398438 362.863281 341.347656 C 365.71875 341.347656 369.789062 341.289062 371.882812 339.007812 L 372.347656 339.121094 C 372.234375 344.730469 372.003906 350.335938 371.625 355.933594 C 371.628906 356.070312 371.675781 356.191406 371.765625 356.292969 C 371.859375 356.394531 371.972656 356.457031 372.109375 356.472656 Z M 372.507812 322.105469 C 365.640625 323.625 358.6875 324.398438 351.648438 324.414062 C 349.914062 324.234375 348.175781 324.191406 346.4375 324.28125 C 338.085938 323.863281 329.925781 322.390625 321.957031 319.855469 C 313.992188 317.324219 306.480469 313.816406 299.425781 309.332031 C 299.347656 309.25 299.253906 309.191406 299.148438 309.152344 C 297.953125 308.390625 296.773438 307.59375 295.601562 306.785156 C 295.570312 306.5625 295.492188 306.355469 295.359375 306.171875 C 295.226562 305.988281 295.0625 305.84375 294.859375 305.742188 C 294.65625 305.636719 294.441406 305.589844 294.214844 305.59375 C 293.988281 305.59375 293.773438 305.652344 293.574219 305.757812 C 295.695312 300.808594 297.628906 295.761719 299.285156 290.640625 C 299.996094 288.464844 300.9375 285.792969 299.359375 283.769531 C 298.738281 283.070312 297.984375 282.570312 297.101562 282.269531 C 296.214844 281.96875 295.3125 281.902344 294.394531 282.078125 C 292.121094 282.402344 290.378906 283.980469 289.027344 285.757812 C 287.296875 288.007812 285.878906 290.507812 284.328125 292.894531 C 283.664062 293.917969 282.96875 294.9375 282.292969 295.960938 C 282.265625 295.917969 282.234375 295.878906 282.199219 295.839844 C 282.246094 295.78125 282.285156 295.707031 282.34375 295.648438 C 274.792969 288.050781 268.664062 279.445312 263.953125 269.832031 C 267.3125 270.25 270.671875 270.234375 274.027344 269.78125 C 276.429688 269.464844 278.785156 268.945312 281.097656 268.222656 C 281.375 268.144531 281.53125 267.960938 281.570312 267.675781 C 281.609375 267.386719 281.503906 267.167969 281.257812 267.019531 C 278.359375 265.222656 275.789062 263.046875 273.542969 260.484375 C 271.296875 257.921875 269.472656 255.089844 268.074219 251.984375 L 265.789062 245.503906 C 266.058594 245.933594 266.324219 246.359375 266.617188 246.769531 C 270.03125 251.605469 275.007812 254.894531 280.371094 257.222656 C 283.453125 258.515625 286.59375 259.632812 289.800781 260.574219 C 292.292969 261.433594 294.859375 261.914062 297.496094 262.019531 C 297.519531 262.300781 297.664062 262.496094 297.925781 262.605469 C 298.1875 262.710938 298.429688 262.675781 298.644531 262.496094 L 299.339844 261.914062 C 299.894531 261.84375 300.445312 261.738281 300.984375 261.59375 C 301.089844 261.5625 301.179688 261.511719 301.257812 261.4375 C 301.332031 261.363281 301.390625 261.273438 301.421875 261.171875 C 301.457031 261.070312 301.464844 260.964844 301.445312 260.859375 C 301.425781 260.753906 301.382812 260.660156 301.320312 260.574219 C 305.046875 258.445312 309.507812 257.808594 313.800781 257.925781 C 316.71875 257.871094 319.550781 258.34375 322.292969 259.339844 C 325.148438 260.527344 327.410156 262.628906 329.65625 264.652344 C 330.285156 265.222656 331.214844 264.289062 330.605469 263.703125 C 328.257812 261.574219 325.851562 259.40625 322.910156 258.140625 C 319.980469 257.050781 316.949219 256.53125 313.816406 256.585938 C 309.0625 256.460938 304.21875 257.238281 300.195312 259.710938 C 297.804688 258.027344 295.761719 255.996094 294.0625 253.621094 C 292.359375 251.242188 291.101562 248.652344 290.285156 245.847656 C 288.21875 239.089844 288.695312 231.8125 290.476562 225.054688 C 291.339844 221.75 292.378906 218.15625 294.335938 215.34375 C 295.269531 214.089844 296.410156 213.074219 297.761719 212.292969 C 299.113281 211.511719 300.566406 211.03125 302.117188 210.847656 C 308.328125 209.898438 314.425781 212.503906 319.886719 215.21875 C 322.414062 216.792969 325.039062 218.179688 327.761719 219.382812 C 328.808594 219.828125 329.921875 220.265625 331.0625 220.691406 C 333.433594 221.707031 335.886719 222.453125 338.417969 222.9375 C 343.707031 223.886719 349.585938 223.515625 354.035156 220.21875 C 358.488281 216.921875 360.484375 211.230469 360.789062 205.765625 C 361.191406 198.722656 358.945312 191.890625 358.402344 184.917969 C 358.066406 180.71875 358.359375 176.566406 359.285156 172.457031 L 359.371094 172.105469 C 360.074219 169.421875 361.203125 166.925781 362.75 164.621094 C 364.582031 161.832031 366.992188 159.703125 369.988281 158.234375 C 370.417969 158.035156 370.882812 157.816406 371.367188 157.636719 C 372.078125 157.628906 372.769531 157.726562 373.449219 157.929688 C 374.324219 158.214844 375.097656 158.671875 375.761719 159.304688 C 376.429688 159.9375 376.925781 160.683594 377.253906 161.539062 C 377.324219 161.863281 377.390625 162.15625 377.445312 162.394531 C 377.503906 162.632812 377.523438 162.632812 377.558594 162.746094 C 377.699219 163.726562 377.539062 164.648438 377.074219 165.523438 C 376.972656 165.691406 376.949219 165.871094 377.007812 166.0625 C 377.066406 166.253906 377.1875 166.390625 377.371094 166.472656 C 377.390625 166.566406 377.433594 166.648438 377.5 166.71875 C 377.5625 166.792969 377.640625 166.84375 377.730469 166.875 C 377.820312 166.90625 377.914062 166.914062 378.007812 166.898438 C 378.105469 166.882812 378.1875 166.84375 378.265625 166.785156 C 380.71875 164.953125 383.972656 166.015625 385.960938 168.039062 C 388.433594 170.550781 388.613281 174.417969 388.453125 177.734375 C 388.261719 181.417969 387.8125 185.085938 387.613281 188.773438 C 387.40625 192.640625 387.308594 196.511719 387.320312 200.394531 C 387.320312 213.253906 387.710938 228.902344 398.78125 237.625 C 400 238.5625 401.308594 239.351562 402.707031 239.988281 C 404.105469 240.625 405.554688 241.097656 407.0625 241.402344 C 408.566406 241.710938 410.089844 241.84375 411.625 241.800781 C 413.160156 241.761719 414.671875 241.546875 416.160156 241.160156 C 418.867188 240.519531 421.480469 239.609375 424 238.433594 C 427.183594 237.050781 430.246094 235.4375 433.1875 233.597656 C 434.140625 233.074219 435.089844 232.542969 436.042969 232.03125 L 446.667969 226.175781 L 448.570312 225.113281 C 448.570312 225.835938 448.617188 226.546875 448.617188 227.269531 C 448.613281 229.984375 448.496094 232.695312 448.265625 235.402344 C 448.035156 238.109375 447.691406 240.800781 447.234375 243.480469 C 446.78125 246.15625 446.210938 248.8125 445.535156 251.441406 C 444.855469 254.074219 444.066406 256.671875 443.171875 259.234375 C 442.273438 261.800781 441.273438 264.324219 440.164062 266.804688 C 439.058594 269.285156 437.847656 271.714844 436.535156 274.09375 C 435.226562 276.472656 433.816406 278.792969 432.3125 281.054688 C 430.804688 283.316406 429.207031 285.511719 427.515625 287.640625 C 425.828125 289.769531 424.050781 291.824219 422.1875 293.800781 C 420.328125 295.78125 418.386719 297.679688 416.363281 299.496094 C 414.34375 301.316406 412.25 303.042969 410.082031 304.6875 C 407.917969 306.328125 405.6875 307.878906 403.390625 309.332031 C 401.09375 310.789062 398.742188 312.144531 396.332031 313.402344 C 393.921875 314.664062 391.464844 315.820312 388.957031 316.871094 C 386.453125 317.925781 383.90625 318.871094 381.320312 319.710938 C 378.734375 320.550781 376.117188 321.28125 373.46875 321.902344 C 373.316406 321.789062 373.144531 321.75 372.953125 321.78125 C 372.765625 321.8125 372.617188 321.90625 372.507812 322.066406 Z M 372.507812 322.105469 " fill-opacity="1" fill-rule="nonzero"/><path fill="#32085c" d="M 539.289062 359.304688 C 526.550781 362.28125 514.503906 367.007812 503.140625 373.484375 C 499.40625 375.535156 495.917969 377.945312 492.679688 380.714844 C 487.550781 378.207031 480.40625 378.613281 475.316406 380.296875 C 472.386719 381.300781 469.574219 382.570312 466.878906 384.101562 C 464.183594 385.636719 461.660156 387.40625 459.296875 389.414062 C 456.9375 391.421875 454.785156 393.628906 452.839844 396.042969 C 450.894531 398.453125 449.191406 401.027344 447.734375 403.757812 C 446.925781 405.257812 449.207031 406.609375 450.015625 405.089844 C 452.328125 400.769531 455.246094 396.898438 458.765625 393.484375 C 462.285156 390.070312 466.238281 387.269531 470.628906 385.085938 C 474.65625 382.941406 478.949219 381.742188 483.507812 381.484375 C 485.972656 381.367188 488.347656 381.769531 490.632812 382.699219 C 490.375 382.964844 490.121094 383.222656 489.871094 383.5 C 486.582031 387.15625 483.660156 392.289062 484.164062 397.390625 C 484.382812 399.597656 485.371094 402.019531 487.628906 402.816406 C 489.882812 403.617188 492.640625 402.410156 494.484375 400.917969 C 495.347656 400.1875 496.097656 399.363281 496.742188 398.4375 C 497.382812 397.511719 497.894531 396.519531 498.277344 395.460938 C 498.660156 394.398438 498.898438 393.308594 498.996094 392.1875 C 499.089844 391.0625 499.039062 389.949219 498.84375 388.839844 C 498.644531 387.53125 498.214844 386.304688 497.558594 385.160156 C 496.902344 384.011719 496.0625 383.023438 495.039062 382.1875 C 497.894531 379.804688 500.945312 377.699219 504.1875 375.878906 C 515.417969 369.453125 527.339844 364.773438 539.945312 361.84375 C 541.636719 361.472656 540.945312 358.925781 539.289062 359.304688 Z M 494.523438 385.675781 C 496.96875 388.800781 496.777344 393.230469 494.769531 396.527344 C 494.265625 397.390625 493.625 398.144531 492.851562 398.78125 C 492.078125 399.421875 491.21875 399.90625 490.273438 400.242188 C 487.769531 401.039062 486.734375 398.863281 486.675781 396.699219 C 486.550781 392.070312 489.367188 387.699219 492.460938 384.496094 C 492.59375 384.355469 492.746094 384.222656 492.886719 384.078125 C 493.496094 384.546875 494.042969 385.078125 494.523438 385.675781 Z M 494.523438 385.675781 " fill-opacity="1" fill-rule="nonzero"/><path fill="#32085c" d="M 279.277344 543.453125 C 267.472656 547.027344 256.734375 536.667969 251.332031 527.300781 C 249.910156 524.792969 248.695312 522.191406 247.691406 519.492188 C 246.683594 516.789062 245.898438 514.027344 245.332031 511.203125 C 244.765625 508.378906 244.429688 505.527344 244.320312 502.648438 C 244.207031 499.769531 244.324219 496.902344 244.671875 494.039062 C 245.445312 487.539062 247.390625 481.410156 250.511719 475.652344 C 251.320312 474.160156 249.039062 472.804688 248.230469 474.3125 C 246.777344 477.042969 245.558594 479.875 244.574219 482.804688 C 243.589844 485.734375 242.851562 488.726562 242.359375 491.78125 C 241.867188 494.832031 241.632812 497.90625 241.648438 500.996094 C 241.664062 504.089844 241.933594 507.15625 242.457031 510.203125 C 244.464844 522.253906 250.464844 534.511719 260.53125 541.800781 C 266.113281 545.839844 273.171875 548.089844 279.964844 546.039062 C 281.601562 545.507812 280.914062 542.960938 279.277344 543.453125 Z M 279.277344 543.453125 " fill-opacity="1" fill-rule="nonzero"/></svg>