<svg xmlns="http://www.w3.org/2000/svg" xmlns:xlink="http://www.w3.org/1999/xlink" width="500" zoomAndPan="magnify" viewBox="0 0 375 374.999991" height="500" preserveAspectRatio="xMidYMid meet" version="1.0"><defs><clipPath id="70f3e65907"><path d="M 187.5 0 C 83.945312 0 0 83.945312 0 187.5 C 0 291.054688 83.945312 375 187.5 375 C 291.054688 375 375 291.054688 375 187.5 C 375 83.945312 291.054688 0 187.5 0 " clip-rule="nonzero"/></clipPath><clipPath id="d1be32c295"><path d="M 107 120 L 272 120 L 272 325.457031 L 107 325.457031 Z M 107 120 " clip-rule="nonzero"/></clipPath><clipPath id="9da192d26e"><path d="M 97.542969 56 L 262 56 L 262 261 L 97.542969 261 Z M 97.542969 56 " clip-rule="nonzero"/></clipPath></defs><g clip-path="url(#70f3e65907)"><rect x="-37.5" width="450" fill="#32085c" y="-37.499999" height="449.999989" fill-opacity="1"/></g><g clip-path="url(#d1be32c295)"><path fill="#ffffff" d="M 178.652344 325.011719 C 152.816406 323.988281 128.203125 309.625 111.429688 282.140625 C 104.476562 270.75 106.101562 261 115.0625 255.230469 C 123.898438 249.539062 133.496094 252.574219 140.398438 264.066406 C 152.121094 283.574219 169.195312 292.828125 191.695312 290.40625 C 212.609375 288.148438 227.105469 276.257812 233.976562 256.542969 C 241.453125 235.113281 235.625 216.417969 219.527344 200.675781 C 203.328125 184.832031 187.117188 169 171.105469 152.976562 C 160.742188 142.609375 159.683594 132.898438 167.5625 125.3125 C 175.195312 117.980469 184.628906 118.816406 194.519531 128.363281 C 212.421875 145.640625 230.789062 162.511719 247.675781 180.746094 C 272.734375 207.824219 277.585938 239.589844 264.050781 273.5625 C 251.585938 304.839844 219.320312 325.25 178.652344 325.011719 Z M 178.652344 325.011719 " fill-opacity="1" fill-rule="nonzero"/></g><g clip-path="url(#9da192d26e)"><path fill="#ffffff" d="M 97.683594 143.265625 C 97.558594 103.855469 122.574219 70.472656 160.085938 60.03125 C 197.171875 49.703125 237.328125 65.90625 256.625 98.988281 C 263.871094 111.417969 262.769531 121.269531 253.496094 126.984375 C 244.203125 132.707031 235.171875 129.289062 227.5 116.785156 C 216.171875 98.320312 199.515625 89.679688 178.210938 91.496094 C 157.292969 93.277344 142.511719 104.78125 135.214844 124.394531 C 127.527344 145.039062 131.878906 163.839844 147.398438 179.542969 C 164.558594 196.914062 182.371094 213.644531 199.410156 231.136719 C 209.851562 241.851562 207.746094 257.039062 195.144531 259.949219 C 189.375 261.285156 180.546875 259.023438 176.148438 255.035156 C 156.75 237.453125 138.074219 219.015625 119.882812 200.164062 C 104.753906 184.492188 97.898438 165.023438 97.683594 143.265625 Z M 97.683594 143.265625 " fill-opacity="1" fill-rule="nonzero"/></g></svg>