<svg width="1495" height="101" viewBox="0 0 1495 101" fill="none" xmlns="http://www.w3.org/2000/svg">
<path d="M-23 25.3744H53.125H129.25L195.344 20.399L203.491 23.8818L213.268 19.1552L229.562 23.8818L249.93 12.936L258.892 19.1552L264.595 11.4434L274.371 22.3892L280.074 16.4187L285.777 26.3695L290.666 7.96059L303.701 20.8966V12.936L314.292 16.4187L318.366 7.96059L328.142 20.399L333.845 16.4187L337.104 27.8621L341.993 19.9015L348.51 23.8818V17.4138L357.625 25.3744L363.175 26.867L364.805 24.8768L367.249 28.3596L368.064 25.3744L370.508 26.867L372.952 23.3842L374.581 27.8621L377.025 26.3695L380.284 28.8571L385.987 25.3744L388.431 26.867L390.061 24.8768L392.051 25.6853L398.208 23.8818L401.467 25.3744L404.726 22.8867L406.922 25.6853L408.799 24.8768L413.688 27.8621L416.781 25.7475L419.391 26.867L424.279 23.8818L425.908 25.3744L429.982 23.3842L431.611 24.3793L429.982 22.3892L436.5 25.8719L439.759 24.3793L441.388 25.8719L445.462 22.8867L448.72 23.8818L450.35 20.8966L453.609 24.8768L455.238 22.8867L456.868 23.8818V22.2648L458.497 23.3842L465.829 21.3941L467.459 22.8867L471.38 22.2648V23.3842L477.235 19.9015V21.3941L479.68 20.399L482.124 21.3941L484.568 19.9015L487.012 20.399L490.195 20.71L492.715 18.4089L496.789 19.9015L500.862 18.9064L503.306 19.9015L505.751 17.4138L506.565 18.4089L508.195 17.4138L509.009 17.9113L510.639 17.4138L509.009 19.1552L511.454 17.9113L515.145 19.1552L520.415 12.936L522.86 18.4089L527.773 15.2371L535.08 16.4187L545.672 5.09975L550.776 7.96059L555.448 0L565.225 5.09975L562.781 1.99015L576.631 11.4434H596.999V21.3941L624.063 25.3744H662.125H738.25H890.5H1195H1804H2413V101H-23V25.3744Z" fill="white"/>
</svg>
